P3
# Created by IrfanView
14 9
255
255 0 0 255 0 0 255 0 0 255 0 0 170 85 0 
0 255 0 0 255 0 0 255 0 0 255 0 0 84 171 
0 0 255 0 0 255 0 0 255 0 0 255 255 0 0 
255 0 0 255 0 0 255 0 0 170 85 0 0 255 0 
0 255 0 0 255 0 0 255 0 0 84 171 0 0 255 
0 0 255 0 0 255 0 0 255 255 0 0 255 0 0 
255 0 0 255 0 0 170 85 0 0 255 0 0 255 0 
0 255 0 0 255 0 0 84 171 0 0 255 0 0 255 
0 0 255 0 0 255 255 64 0 255 64 0 255 64 0 
255 64 0 191 128 22 64 255 64 64 255 64 64 255 64 
64 255 64 21 84 149 0 0 191 0 0 191 0 0 191 
0 0 191 255 228 0 255 228 0 255 228 0 255 228 0 
246 237 76 228 255 228 228 255 228 228 255 228 228 255 228 
75 84 93 0 0 27 0 0 27 0 0 27 0 0 27 
255 255 0 255 255 0 255 255 0 255 255 0 255 255 85 
255 255 255 255 255 255 255 255 255 255 255 255 84 84 84 
0 0 0 0 0 0 0 0 0 0 0 0 255 255 0 
255 255 0 255 255 0 255 255 0 255 255 85 255 255 255 
255 255 255 255 255 255 255 255 255 84 84 84 0 0 0 
0 0 0 0 0 0 0 0 0 255 255 0 255 255 0 
255 255 0 255 255 0 255 255 85 255 255 255 255 255 255 
255 255 255 255 255 255 84 84 84 0 0 0 0 0 0 
0 0 0 0 0 0 255 255 0 255 255 0 255 255 0 
255 255 0 255 255 85 255 255 255 255 255 255 255 255 255 
255 255 255 84 84 84 0 0 0 0 0 0 0 0 0 
0 0 0 